<svg width="185" height="56" viewBox="0 0 185 56" fill="none" xmlns="http://www.w3.org/2000/svg">
<path fill-rule="evenodd" clip-rule="evenodd" d="M26.8264 46.9461L39.9042 8.71857L60.024 9.0539C62.1477 9.501 66.1269 11.7365 65.0539 17.1018C63.7126 23.8084 56.3353 27.497 52.982 28.1677C49.6287 28.8383 54.6587 52.982 84.8383 47.9521C73.2136 52.7585 49.4946 55.1952 46.2755 29.1737H43.2575H39.9042L33.5329 46.9461H26.8264ZM44.5988 14.0838L41.5809 22.4671H52.9821C54.3234 22.02 57.1402 20.5892 57.6767 18.4431C58.3473 15.7605 57.006 14.0838 56 14.0838H44.5988Z" fill="#046538"/>
<path fill-rule="evenodd" clip-rule="evenodd" d="M71.0898 28.1677C75.905 28.1677 79.8084 32.0711 79.8084 36.8862V46.2754H78.4671C77.1561 46.2754 76.0208 45.5231 75.4694 44.4266C74.1825 45.1757 72.6863 45.6048 71.0898 45.6048C66.2747 45.6048 62.3713 41.7014 62.3713 36.8862C62.3713 32.0711 66.2747 28.1677 71.0898 28.1677ZM71.0898 41.5808C73.6826 41.5808 75.7844 39.479 75.7844 36.8862C75.7844 34.2935 73.6826 32.1916 71.0898 32.1916C68.4971 32.1916 66.3952 34.2935 66.3952 36.8862C66.3952 39.479 68.4971 41.5808 71.0898 41.5808Z" fill="#88CF1E"/>
<path d="M96.4975 28.1677H101.192V38.2275H96.4975V28.1677Z" fill="#88CF1E"/>
<path d="M83.0843 28.1677H83.755C85.9773 28.1677 87.7789 29.9692 87.7789 32.1916V38.2275H83.0843V28.1677Z" fill="#88CF1E"/>
<path d="M92.1382 46.2754C97.1385 46.2754 101.192 43.2279 101.192 38.2275H96.4975C96.6093 39.5689 95.8939 42.2515 92.1382 42.2515C88.3825 42.2515 87.6672 39.5689 87.7789 38.2275H83.0843C83.0843 43.2279 87.1379 46.2754 92.1382 46.2754Z" fill="#88CF1E"/>
<path d="M77.7191 54.3233C88.4496 54.3233 94.8209 47.2814 94.8209 46.2754V45.6048L97.8388 41.9162L101.192 38.8982C101.192 53.988 87.6365 56 80.737 56C76.7969 56 73.0684 55.0939 69.7485 53.4788C72.1565 54.2451 75.0571 54.3233 77.7191 54.3233Z" fill="#88CF1E"/>
<path d="M104.623 45.6502V19.4945C107.037 19.2262 108.647 20.1651 108.647 21.8418V28.5484C108.647 28.5484 110.994 27.8777 113.341 27.8777C119.377 27.8777 120.383 32.0134 120.383 34.249V45.6502C120.271 45.6502 120.718 45.6804 119.377 45.6502C116.981 45.5961 116.359 44.2635 116.359 41.2455V34.9196C116.359 34.9196 116.359 31.8563 112.671 31.8563C108.982 31.8563 108.647 34.9196 108.647 34.9196V45.6502H104.623Z" fill="#88CF1E"/>
<path fill-rule="evenodd" clip-rule="evenodd" d="M132.79 45.6048C137.606 45.6048 141.509 41.7014 141.509 36.8862C141.509 32.0711 137.606 28.1677 132.79 28.1677C127.975 28.1677 124.072 32.0711 124.072 36.8862C124.072 41.7014 127.975 45.6048 132.79 45.6048ZM132.79 41.5808C135.383 41.5808 137.485 39.479 137.485 36.8862C137.485 34.2935 135.383 32.1916 132.79 32.1916C130.198 32.1916 128.096 34.2935 128.096 36.8862C128.096 39.479 130.198 41.5808 132.79 41.5808Z" fill="#88CF1E"/>
<path d="M144.862 45.6048V27.497H148.886V29.1737C149.557 28.503 150.898 27.8323 153.246 27.8323C158.946 27.8323 160.511 32.3034 160.623 34.5389V45.6048H158.946C157.337 45.6048 156.711 44.487 156.599 43.9281V34.2036C156.599 34.2036 156.599 31.8563 152.91 31.8563C148.886 31.8563 148.886 34.2036 148.886 34.2036V45.6048H144.862Z" fill="#88CF1E"/>
<path d="M163.685 37.6306C163.428 40.4564 164.327 43.7318 165.611 45.0163C164.96 42.9324 165.12 38.7546 166.575 36.3461C167.859 34.4194 170.043 32.7869 170.428 30.8872C170.535 32.0646 170.235 34.869 168.18 36.6672C165.611 38.9151 166.027 43.3166 166.254 43.0896C166.896 42.4473 170.428 41.4198 171.391 41.8051C174.603 43.0896 174.603 42.7685 177.493 42.7685C180.618 42.7685 183.059 41.2699 183.915 40.1995C184.236 40.0925 184.365 39.9426 182.309 40.1995C179.74 40.5206 179.259 37.3095 174.924 37.3095C173.382 37.3095 171.713 38.3799 171.07 38.9151C171.713 38.808 173.382 38.6582 174.924 38.9151C176.465 39.172 177.707 40.0925 178.135 40.5206C176.957 40.1995 174.346 39.5573 173.318 39.5573C170.428 39.5573 168.823 39.8784 167.538 40.8418C168.287 40.0925 170.171 37.8233 171.713 34.7405C173.254 31.6578 171.713 26.3915 170.749 24.1437C170.642 25.1071 170.428 27.3549 169.465 28.6393C168.246 30.2641 164.006 34.0983 163.685 37.6306Z" fill="#046538"/>
<path d="M174.924 46.6219C173.96 45.9796 172.676 44.374 168.18 43.0896C169.979 42.062 173.425 43.9459 174.924 45.0163C174.924 44.374 174.397 43.2566 174.603 43.4107C175.887 44.374 176.049 44.803 176.85 45.3374C177.814 45.9796 179.633 46.6219 181.025 46.943C179.205 47.4782 176.014 47.3485 174.924 46.6219Z" fill="#046538"/>
<path d="M29.0784 26.33C27.6463 29.4286 24.7394 32.3001 22.6287 32.8657C24.5605 31.0864 26.9069 26.6376 26.8401 23.2535C26.6608 20.4736 25.3676 17.4593 26.1091 15.2484C25.2894 16.4107 23.9148 19.5127 24.9742 22.6223C26.2985 26.5093 23.2184 30.8452 23.1185 30.4721C22.8357 29.4167 19.7738 26.2215 18.5384 26.0435C14.4203 25.4502 14.6134 25.1157 11.6025 23.3773C8.34658 21.4975 6.70509 18.4681 6.4568 16.8379C6.18664 16.5333 6.14296 16.2999 8.12953 17.8037C10.6128 19.6834 13.0463 16.6278 17.5625 19.2352C19.1683 20.1623 20.2641 22.2819 20.6113 23.2258C20.0065 22.7279 18.357 21.5674 16.5967 20.9079C14.8364 20.2485 12.9891 20.4606 12.2855 20.6492C13.7053 21.0228 16.8126 21.9247 17.8831 22.5428C20.894 24.2811 22.3736 25.5814 23.1324 27.3577C22.8024 26.1264 22.2047 22.6291 22.4531 18.4903C22.7015 14.3516 27.475 9.79215 29.8307 8.02977C29.3628 9.0978 28.2338 11.5684 28.4648 13.486C28.757 15.9117 30.8685 22.4569 29.0784 26.33Z" fill="#88CF1E"/>
<path d="M11.9611 28.937C13.351 28.8474 15.655 27.9473 21.1112 29.3132C19.8558 27.161 15.1319 27.0505 12.9268 27.2643C13.3131 26.5952 14.534 25.7478 14.2271 25.7847C12.3095 26.0158 11.8829 26.3654 10.7264 26.4399C9.33646 26.5296 7.0544 26.1042 5.41155 25.6017C6.98539 27.2538 10.3885 29.0385 11.9611 28.937Z" fill="#88CF1E"/>
<path d="M19.4491 36.2156L12.0719 36.5509C11.6248 39.3453 11.8036 44.9341 16.0958 44.9341C21.4611 44.9341 25.1497 34.2036 25.1497 34.2036C23.8084 35.2096 22.4671 35.8802 19.4491 36.2156Z" fill="#88CF1E"/>
<path d="M3.01796 35.5449C1.40838 37.1545 4.35927 40.1277 6.03592 41.2455C1.47544 40.9772 -4.26392e-06 37.8922 0 36.5509V34.8742L0.335329 33.5329C0.447106 32.974 1.40838 32.1245 3.01796 31.8563C4.62754 31.588 6.48303 32.974 7.37724 33.8683C7.26547 33.4211 7.51138 32.5269 8.0479 31.1856C8.58443 29.8443 10.3952 29.509 11.4012 29.509C10.8423 29.6207 10.0599 30.1126 10.0599 31.1856C10.0599 32.2587 12.0719 33.1976 14.0838 33.1976H20.4551L22.4671 32.1916C22.2435 32.527 21.7964 33.1976 21.4611 33.5329C20.7904 34.2036 20.1198 34.5389 18.7784 34.8742H10.3952C10.0599 35.5449 10.0599 36.8192 10.0599 39.2335C10.0599 42.2515 11.2894 44.2635 12.0719 45.2695C9.38922 44.2635 8.57811 41.4948 8.0479 39.9042C7.37724 37.8922 5.02994 33.5329 3.01796 35.5449Z" fill="#046538"/>
</svg>
